<svg width="130" height="48" viewBox="0 0 130 48" fill="none" xmlns="http://www.w3.org/2000/svg">
<path d="M58.5 15.9673V36.0556H54.1364V18.5389V17.7079L53.4022 18.0971L29.5002 30.7673L1.06602 15.6667L29.5 0.566135L58.5 15.9673ZM11.2273 36.7765V24.852L29.2664 34.3865L29.5 34.51L29.7336 34.3865L47.7727 24.852V36.7765L29.5 46.4345L11.2273 36.7765Z" fill="#FF9900" stroke="#FF9900"/>
<path d="M67.464 35V31.664H75.936V35H67.464ZM67.464 21.536V18.2H75.936V21.536H67.464ZM67.464 27.8V24.536H75.456V27.8H67.464ZM64.776 18.2H68.664V35H64.776V18.2ZM81.0849 29.096C81.4209 29.704 81.7969 30.232 82.2129 30.68C82.6449 31.128 83.1089 31.472 83.6049 31.712C84.1169 31.952 84.6529 32.072 85.2129 32.072C85.8049 32.072 86.2929 31.928 86.6769 31.64C87.0609 31.336 87.2529 30.928 87.2529 30.416C87.2529 29.984 87.1409 29.64 86.9169 29.384C86.6929 29.112 86.3329 28.856 85.8369 28.616C85.3409 28.376 84.6849 28.104 83.8689 27.8C83.4689 27.656 83.0049 27.456 82.4769 27.2C81.9649 26.944 81.4769 26.616 81.0129 26.216C80.5489 25.8 80.1649 25.304 79.8609 24.728C79.5569 24.136 79.4049 23.424 79.4049 22.592C79.4049 21.6 79.6609 20.744 80.1729 20.024C80.7009 19.304 81.4049 18.76 82.2849 18.392C83.1809 18.008 84.1729 17.816 85.2609 17.816C86.3809 17.816 87.3489 18 88.1649 18.368C88.9969 18.736 89.6849 19.2 90.2289 19.76C90.7729 20.32 91.1889 20.888 91.4769 21.464L88.3809 23.192C88.1409 22.792 87.8609 22.448 87.5409 22.16C87.2369 21.856 86.8929 21.624 86.5089 21.464C86.1409 21.288 85.7409 21.2 85.3089 21.2C84.7329 21.2 84.2929 21.328 83.9889 21.584C83.6849 21.824 83.5329 22.128 83.5329 22.496C83.5329 22.88 83.6769 23.216 83.9649 23.504C84.2689 23.792 84.6929 24.056 85.2369 24.296C85.7969 24.536 86.4689 24.792 87.2529 25.064C87.8449 25.288 88.3969 25.552 88.9089 25.856C89.4209 26.144 89.8689 26.496 90.2529 26.912C90.6529 27.328 90.9649 27.808 91.1889 28.352C91.4129 28.896 91.5249 29.52 91.5249 30.224C91.5249 31.072 91.3489 31.832 90.9969 32.504C90.6609 33.16 90.1969 33.712 89.6049 34.16C89.0289 34.608 88.3649 34.944 87.6129 35.168C86.8769 35.408 86.1169 35.528 85.3329 35.528C84.2449 35.528 83.2289 35.336 82.2849 34.952C81.3569 34.552 80.5489 34.016 79.8609 33.344C79.1729 32.672 78.6369 31.936 78.2529 31.136L81.0849 29.096ZM98.5569 26.432L97.5489 35H93.2769L95.9889 17.36L103.141 27.608L110.317 17.36L113.029 35H108.757L107.749 26.432L103.141 33.44L98.5569 26.432ZM117.46 29.096C117.796 29.704 118.172 30.232 118.588 30.68C119.02 31.128 119.484 31.472 119.98 31.712C120.492 31.952 121.028 32.072 121.588 32.072C122.18 32.072 122.668 31.928 123.052 31.64C123.436 31.336 123.628 30.928 123.628 30.416C123.628 29.984 123.516 29.64 123.292 29.384C123.068 29.112 122.708 28.856 122.212 28.616C121.716 28.376 121.06 28.104 120.244 27.8C119.844 27.656 119.38 27.456 118.852 27.2C118.34 26.944 117.852 26.616 117.388 26.216C116.924 25.8 116.54 25.304 116.236 24.728C115.932 24.136 115.78 23.424 115.78 22.592C115.78 21.6 116.036 20.744 116.548 20.024C117.076 19.304 117.78 18.76 118.66 18.392C119.556 18.008 120.548 17.816 121.636 17.816C122.756 17.816 123.724 18 124.54 18.368C125.372 18.736 126.06 19.2 126.604 19.76C127.148 20.32 127.564 20.888 127.852 21.464L124.756 23.192C124.516 22.792 124.236 22.448 123.916 22.16C123.612 21.856 123.268 21.624 122.884 21.464C122.516 21.288 122.116 21.2 121.684 21.2C121.108 21.2 120.668 21.328 120.364 21.584C120.06 21.824 119.908 22.128 119.908 22.496C119.908 22.88 120.052 23.216 120.34 23.504C120.644 23.792 121.068 24.056 121.612 24.296C122.172 24.536 122.844 24.792 123.628 25.064C124.22 25.288 124.772 25.552 125.284 25.856C125.796 26.144 126.244 26.496 126.628 26.912C127.028 27.328 127.34 27.808 127.564 28.352C127.788 28.896 127.9 29.52 127.9 30.224C127.9 31.072 127.724 31.832 127.372 32.504C127.036 33.16 126.572 33.712 125.98 34.16C125.404 34.608 124.74 34.944 123.988 35.168C123.252 35.408 122.492 35.528 121.708 35.528C120.62 35.528 119.604 35.336 118.66 34.952C117.732 34.552 116.924 34.016 116.236 33.344C115.548 32.672 115.012 31.936 114.628 31.136L117.46 29.096Z" fill="#213E7B"/>
<line x1="48" y1="41.5" x2="130" y2="41.5" stroke="#FF9900"/>
<line x1="48" y1="44.5" x2="94" y2="44.5" stroke="#FF9900"/>
<line x1="48" y1="47.5" x2="65" y2="47.5" stroke="#FF9900"/>
</svg>
